<?xml version="1.0" encoding="utf-8"?>
<!-- Generator: Adobe Illustrator 20.1.0, SVG Export Plug-In . SVG Version: 6.00 Build 0)  -->
<svg version="1.1" id="Layer_1" xmlns="http://www.w3.org/2000/svg" xmlns:xlink="http://www.w3.org/1999/xlink" x="0px" y="0px"
	 viewBox="0 0 87.5 87.5" style="enable-background:new 0 0 87.5 87.5;" xml:space="preserve">
<style type="text/css">
	.st0{fill:none;}
	.st1{fill:#089A8B;}
</style>
<g>
	<path class="st0" d="M50.9,47.5c-0.1-0.3-0.1-0.6,0.1-0.9l3.7-5.2l-6-1.7c0,0,0,0-0.1,0c-0.1,0-0.1,0-0.2-0.1
		c-0.1-0.1-0.2-0.2-0.3-0.3l0,0l0,0c0-0.1-0.1-0.1-0.1-0.2l-4.7-6.7l-4.8,6.8c0,0-0.1,0-0.1,0.1c-0.1,0.1-0.1,0.1-0.2,0.2
		c-0.1,0-0.1,0.1-0.2,0.1c0,0,0,0,0,0l-5.6,1.6l3.8,5.3c0.2,0.3,0.2,0.6,0.1,0.9l0.3,7l6.4-2.1c0.2-0.1,0.4,0,0.6,0
		c0.2-0.1,0.4-0.1,0.6,0l6.4,2.1L50.9,47.5z"/>
	<path class="st0" d="M43.8,2C20.7,2,2,20.7,2,43.8c0,23,18.7,41.8,41.8,41.8c23,0,41.8-18.7,41.8-41.8C85.5,20.7,66.8,2,43.8,2z
		 M55.5,30.8l13.4-13.4c0.4-0.4,1-0.4,1.4,0s0.4,1,0,1.4L56.9,32.3c-0.2,0.2-0.5,0.3-0.7,0.3s-0.5-0.1-0.7-0.3
		C55.1,31.9,55.1,31.2,55.5,30.8z M42.7,7c0-0.6,0.4-1,1-1s1,0.4,1,1v19c0,0.6-0.4,1-1,1s-1-0.4-1-1V7z M16.1,16.9
		c0.4-0.4,1-0.4,1.4,0L31,30.3c0.4,0.4,0.4,1,0,1.4c-0.2,0.2-0.5,0.3-0.7,0.3s-0.5-0.1-0.7-0.3L16.1,18.3
		C15.7,17.9,15.7,17.3,16.1,16.9z M6,45c-0.6,0-1-0.4-1-1s0.4-1,1-1h19c0.6,0,1,0.4,1,1s-0.4,1-1,1H6z M31.5,57.2L18,70.7
		c-0.2,0.2-0.5,0.3-0.7,0.3s-0.5-0.1-0.7-0.3c-0.4-0.4-0.4-1,0-1.4L30,55.8c0.4-0.4,1-0.4,1.4,0S31.8,56.8,31.5,57.2z M44.4,80.7
		c0,0.6-0.4,1-1,1s-1-0.4-1-1v-19c0-0.6,0.4-1,1-1s1,0.4,1,1V80.7z M52.5,56.2c-0.1,0.4-0.5,0.7-1,0.7c-0.1,0-0.2,0-0.3,0l-7.6-2.5
		L36,56.8c-0.1,0-0.2,0-0.3,0c-0.4,0-0.8-0.3-1-0.7c-0.1-0.2,0-0.3,0-0.5c0-0.1-0.1-0.2-0.1-0.3l-0.3-8l-4.2-6c0,0,0,0,0,0
		c-0.1-0.1-0.2-0.2-0.2-0.4c-0.2-0.5,0.2-1.1,0.7-1.2l6.6-1.9l5.3-7.5c0.1-0.2,0.2-0.3,0.3-0.4c0.1-0.1,0.3-0.1,0.4-0.2
		c0.1,0,0.1,0,0.2,0c0.1,0,0.1,0,0.2,0c0.2,0,0.3,0.1,0.4,0.2c0.2,0.1,0.3,0.3,0.3,0.4l5.3,7.5l6.6,1.9c0.1,0,0.2,0.1,0.2,0.1
		c0.1,0,0.3,0.1,0.4,0.2c0.5,0.3,0.6,0.9,0.2,1.4l-4.2,6l-0.3,8.3c0,0,0,0,0,0.1C52.5,55.9,52.5,56,52.5,56.2z M70.2,71
		c-0.2,0.2-0.5,0.3-0.7,0.3S69,71.2,68.8,71L55.4,57.6c-0.4-0.4-0.4-1,0-1.4s1-0.4,1.4,0l13.4,13.4C70.6,70,70.6,70.6,70.2,71z
		 M80.5,45h-19c-0.6,0-1-0.4-1-1s0.4-1,1-1h19c0.6,0,1,0.4,1,1S81.1,45,80.5,45z"/>
	<path class="st1" d="M52.9,47.4l4.2-6c0.3-0.5,0.2-1.1-0.2-1.4c-0.1-0.1-0.2-0.1-0.4-0.2c-0.1,0-0.1-0.1-0.2-0.1l-6.6-1.9l-5.3-7.5
		c-0.1-0.2-0.2-0.3-0.3-0.4c-0.1-0.1-0.3-0.1-0.4-0.2c-0.1,0-0.1,0-0.2,0c-0.1,0-0.1,0-0.2,0c-0.2,0-0.3,0.1-0.4,0.2
		c-0.2,0.1-0.3,0.3-0.3,0.4l-5.3,7.5l-6.6,1.9c-0.5,0.2-0.8,0.7-0.7,1.2c0,0.2,0.1,0.3,0.2,0.4c0,0,0,0,0,0l4.2,6l0.3,8
		c0,0.1,0,0.2,0.1,0.3c0,0.2,0,0.3,0,0.5c0.1,0.4,0.5,0.7,1,0.7c0.1,0,0.2,0,0.3,0l7.6-2.5l7.6,2.5c0.1,0,0.2,0,0.3,0
		c0.4,0,0.8-0.3,1-0.7c0-0.1,0.1-0.3,0-0.4c0,0,0,0,0-0.1L52.9,47.4z M44.2,52.4c-0.2-0.1-0.4,0-0.6,0c-0.2-0.1-0.4-0.1-0.6,0
		l-6.4,2.1l-0.3-7c0.1-0.3,0.1-0.6-0.1-0.9l-3.8-5.3l5.6-1.6c0,0,0,0,0,0c0.1,0,0.2-0.1,0.2-0.1c0.1,0,0.1-0.1,0.2-0.2
		c0,0,0.1,0,0.1-0.1l4.8-6.8l4.7,6.7c0,0.1,0.1,0.1,0.1,0.2l0,0l0,0c0.1,0.1,0.2,0.2,0.3,0.3c0,0,0.1,0.1,0.2,0.1c0,0,0,0,0.1,0
		l6,1.7L51,46.6c-0.2,0.3-0.2,0.6-0.1,0.9l-0.3,7L44.2,52.4z"/>
	<path class="st1" d="M43.7,27c0.6,0,1-0.4,1-1V7c0-0.6-0.4-1-1-1s-1,0.4-1,1v19C42.7,26.6,43.1,27,43.7,27z"/>
	<path class="st1" d="M80.5,43h-19c-0.6,0-1,0.4-1,1s0.4,1,1,1h19c0.6,0,1-0.4,1-1S81.1,43,80.5,43z"/>
	<path class="st1" d="M26,44c0-0.6-0.4-1-1-1H6c-0.6,0-1,0.4-1,1s0.4,1,1,1h19C25.6,45,26,44.6,26,44z"/>
	<path class="st1" d="M43.4,60.7c-0.6,0-1,0.4-1,1v19c0,0.6,0.4,1,1,1s1-0.4,1-1v-19C44.4,61.1,43.9,60.7,43.4,60.7z"/>
	<path class="st1" d="M56.2,32.5c0.3,0,0.5-0.1,0.7-0.3l13.4-13.4c0.4-0.4,0.4-1,0-1.4s-1-0.4-1.4,0L55.5,30.8c-0.4,0.4-0.4,1,0,1.4
		C55.7,32.4,55.9,32.5,56.2,32.5z"/>
	<path class="st1" d="M56.8,56.2c-0.4-0.4-1-0.4-1.4,0s-0.4,1,0,1.4L68.8,71c0.2,0.2,0.5,0.3,0.7,0.3s0.5-0.1,0.7-0.3
		c0.4-0.4,0.4-1,0-1.4L56.8,56.2z"/>
	<path class="st1" d="M29.6,31.8c0.2,0.2,0.5,0.3,0.7,0.3s0.5-0.1,0.7-0.3c0.4-0.4,0.4-1,0-1.4L17.5,16.9c-0.4-0.4-1-0.4-1.4,0
		s-0.4,1,0,1.4L29.6,31.8z"/>
	<path class="st1" d="M30,55.8L16.6,69.3c-0.4,0.4-0.4,1,0,1.4c0.2,0.2,0.5,0.3,0.7,0.3s0.5-0.1,0.7-0.3l13.4-13.4
		c0.4-0.4,0.4-1,0-1.4S30.4,55.4,30,55.8z"/>
	<path class="st1" d="M43.8,0C19.6,0,0,19.6,0,43.8s19.6,43.8,43.8,43.8s43.8-19.6,43.8-43.8S67.9,0,43.8,0z M43.8,85.5
		C20.7,85.5,2,66.8,2,43.8C2,20.7,20.7,2,43.8,2c23,0,41.8,18.7,41.8,41.8C85.5,66.8,66.8,85.5,43.8,85.5z"/>
</g>
</svg>
