<?xml version="1.0" encoding="utf-8"?>
<!-- Generator: Adobe Illustrator 20.1.0, SVG Export Plug-In . SVG Version: 6.00 Build 0)  -->
<svg version="1.1" id="Layer_1" xmlns="http://www.w3.org/2000/svg" xmlns:xlink="http://www.w3.org/1999/xlink" x="0px" y="0px"
	 viewBox="0 0 88.7 88.3" style="enable-background:new 0 0 88.7 88.3;" xml:space="preserve">
<style type="text/css">
	.st0{fill:#089A8B;}
</style>
<g>
	<path class="st0" d="M44.3,87.9c-24.1,0-43.8-19.6-43.8-43.8C0.6,20,20.2,0.4,44.3,0.4S88.1,20,88.1,44.2
		C88.1,68.3,68.5,87.9,44.3,87.9z M44.3,2.4c-23,0-41.8,18.7-41.8,41.8s18.7,41.8,41.8,41.8c23,0,41.8-18.7,41.8-41.8
		S67.4,2.4,44.3,2.4z"/>
</g>
<g>
	<path class="st0" d="M44.3,71.2l-3.9-3.9C28.7,56.9,20.2,49.4,20.2,40c0-7.7,6-13.7,13.7-13.7c3.9,0,7.7,1.6,10.4,4.4
		c2.7-2.8,6.5-4.4,10.4-4.4c7.7,0,13.7,6,13.7,13.7c0,9.5-8.5,17-20.2,27.4L44.3,71.2z M33.9,28.2c-6.6,0-11.7,5.1-11.7,11.7
		c0,8.2,7.1,14.8,19.5,25.9l2.6,2.6l2.5-2.5C59.4,54.8,66.5,48.1,66.5,40c0-6.6-5.1-11.7-11.7-11.7c-3.6,0-7.3,1.7-9.6,4.5l-0.8,0.9
		l-0.8-0.9C41.2,30,37.5,28.2,33.9,28.2z"/>
</g>
</svg>
