<?xml version="1.0" encoding="utf-8"?>
<!-- Generator: Adobe Illustrator 20.1.0, SVG Export Plug-In . SVG Version: 6.00 Build 0)  -->
<svg version="1.1" id="Layer_1" xmlns="http://www.w3.org/2000/svg" xmlns:xlink="http://www.w3.org/1999/xlink" x="0px" y="0px"
	 viewBox="0 0 88.7 88.3" style="enable-background:new 0 0 88.7 88.3;" xml:space="preserve">
<style type="text/css">
	.st0{fill:#089A8B;}
</style>
<g>
	<path class="st0" d="M44.3,87.9c-24.1,0-43.8-19.6-43.8-43.8C0.6,20,20.2,0.4,44.3,0.4S88.1,20,88.1,44.2
		C88.1,68.3,68.5,87.9,44.3,87.9z M44.3,2.4c-23,0-41.8,18.7-41.8,41.8s18.7,41.8,41.8,41.8c23,0,41.8-18.7,41.8-41.8
		S67.4,2.4,44.3,2.4z"/>
</g>
<path class="st0" d="M59.4,32c0.1-0.9-0.2-1.8-0.8-2.6c-0.6-0.7-1.4-1.2-2.4-1.2c-0.8-0.1-1.6,0.1-2.3,0.6c-0.1-0.7-0.4-1.3-0.8-1.8
	c-0.6-0.8-1.5-1.2-2.5-1.3c-0.9-0.1-1.9,0.2-2.6,0.8c-0.5-1.2-1.7-2.1-3.1-2.3c-1.4-0.1-2.7,0.5-3.4,1.6c-0.6-0.7-1.5-1.1-2.4-1.2
	c-2.1-0.2-3.9,1.3-4.1,3.4l-0.5,5.4c-0.9,0.5-1.9,1.4-2.9,2.7c-3.5,4.1-4.7,6-3,8.7c1.2,2,4.4,5.1,6.3,6.5L35,63.8h19.8V52.1
	c5.1-5.5,3.5-10.7,3.5-11c0-0.1-0.1-0.1-0.1-0.2c0.4-0.5,0.6-1.1,0.6-1.7L59.4,32z M52.9,51.3V62H36.8l-0.1-11.9l-0.4-0.3
	c-1.6-1-5-4.3-6.1-6.2c-0.8-1.4-1-2.1,2.8-6.5c0.5-0.6,1-1.1,1.4-1.4c0.3-0.3,0.6-0.5,0.9-0.7c0.3-0.2,0.7-0.4,1-0.5
	c1-0.4,1.8-0.2,2.5,0c0.1,0,0.3,0.1,0.4,0.1c0.2,0.1,0.5,0.3,0.9,0.6c0,0,0.1,0.1,0.1,0.1c0.2,0.2,0.5,0.4,0.7,0.6
	c0,0,0.1,0.1,0.1,0.1c0.2,0.2,0.4,0.4,0.6,0.6c0.1,0.1,0.2,0.2,0.3,0.3c0.6,0.6,1.1,1.2,1.6,1.7c0.1,0.1,0.2,0.2,0.2,0.3
	c0.2,0.2,0.4,0.4,0.6,0.6h0c0.2,0.3,0.5,0.5,0.7,0.8c0.1,0.1,0.1,0.1,0.2,0.2c0.2,0.2,0.4,0.4,0.5,0.6c0.7,1,0.6,1.6,0.6,1.7
	c-0.5,0.8-1.2,1.2-2,1.2c-2.1,0.2-4.8-1.8-6.3-3.1c-0.3-0.3-0.5-0.5-0.7-0.7c-0.3-0.4-0.9-0.4-1.3,0c-0.4,0.4-0.4,0.9,0,1.3
	c0.2,0.2,4.6,4.6,8.4,4.3c0.1,0,0.2,0,0.3,0c0.2,0.6,0.3,1.1,0.3,1.6l-0.6,3.7c-0.4,0.9-0.9,1.4-1,1.5c-0.4,0.3-0.4,0.9,0,1.3
	c0.2,0.2,0.4,0.3,0.7,0.3c0.2,0,0.4-0.1,0.6-0.2c0.2-0.1,3.4-3.3,1.8-8.7c0.5-0.3,1-0.8,1.4-1.4l0.1-0.1c0.1-0.1,0.3-0.6,0.2-1.5
	c0.3,0.1,0.6,0.2,0.9,0.2c0.1,0,0.2,0,0.3,0c0.9,0,1.7-0.3,2.4-0.9c0.2-0.1,0.3-0.3,0.4-0.4c0.1-0.1,0.2-0.2,0.3-0.3
	c0.1,0.1,0.2,0.2,0.3,0.3c0.6,0.6,1.3,1,2.2,1.1c0.1,0,0.2,0,0.3,0c0.5,0,0.9-0.1,1.3-0.3c0.2,1.3,0.4,5-3.4,8.9L52.9,51.3z
	 M36.8,28.1c0.1-1.1,1-1.8,2.1-1.7c1.1,0.1,1.8,1,1.7,2.1l-0.4,4.8c-0.2-0.1-0.5-0.2-0.7-0.3c-0.1,0-0.2-0.1-0.3-0.1
	c-0.8-0.3-1.8-0.5-2.8-0.3L36.8,28.1z M44.6,25.9c0.1,0,0.1,0,0.2,0c1.1,0.1,1.9,1,1.8,2.1l-0.8,9c0,0.4-0.2,0.7-0.4,1
	c-0.1-0.1-0.2-0.2-0.2-0.2c-1.2-1.3-2.2-2.3-3-3.1l0.6-7C42.8,26.7,43.6,25.9,44.6,25.9z M52.2,29.6L51.4,39c0,0.5-0.3,1-0.7,1.3
	c-0.3,0.3-0.8,0.5-1.2,0.5c-0.1,0-0.1,0-0.2,0c-0.5-0.1-1-0.3-1.3-0.7c-0.3-0.4-0.5-0.9-0.4-1.4l0.9-9.5c0.1-0.5,0.3-1,0.7-1.3
	c0.4-0.3,0.8-0.4,1.2-0.4c0.1,0,0.1,0,0.2,0c0.5,0,1,0.3,1.3,0.7C52.1,28.5,52.3,29,52.2,29.6z M57.6,31.9L57,39.1
	c-0.1,0.9-0.9,1.6-1.8,1.5c-0.9-0.1-1.6-0.9-1.5-1.8l0.7-7.2c0.1-0.9,0.9-1.6,1.8-1.5c0.4,0,0.9,0.3,1.1,0.6
	C57.5,31,57.7,31.4,57.6,31.9z"/>
</svg>
